<?xml version="1.0" encoding="utf-8" standalone="yes"?>
<!DOCTYPE svg PUBLIC "-//W3C//DTD SVG 1.1//EN" "http://www.w3.org/Graphics/SVG/1.1/DTD/svg11.dtd">
<svg style="fill:none;stroke:none;fill-rule:evenodd;clip-rule:evenodd;stroke-linecap:round;stroke-linejoin:round;stroke-miterlimit:1.5;" version="1.1" xmlns="http://www.w3.org/2000/svg" xmlns:xlink="http://www.w3.org/1999/xlink" width="948" height="594" viewBox="0 0 948 594"><style class="text-font-style fontImports" data-font-family="Roboto">@import url(https://fonts.googleapis.com/css2?family=Roboto:wght@400;700&amp;amp;display=block);</style><g id="items" style="isolation: isolate"><g id="blend" style="mix-blend-mode: normal"><g id="g-root-cp_6_g-6_mdkqjfubma6i-fill" data-item-order="-448190" transform="translate(334.9920349121094, 121.696044921875)"><g id="cp_6_g-6_mdkqjfubma6i-fill-merged" stroke="none" fill="#de8431" fill-opacity="1"><g><path d="M99.577 34.008C112.832 56.966 104.966 86.322 82.008 99.577C59.05 112.832 29.694 104.966 16.439 82.008C3.184 59.05 11.05 29.694 34.008 16.439C56.966 3.184 86.322 11.05 99.577 34.008"></path></g></g><g id="cp_6_g-6_mdkqjfubma6i-fill-merged" stroke="none" fill="#de8431" fill-opacity="1"><g><path d="M92.242 171.304C96.982 163.095 103.798 156.278 112.007 151.538C120.216 146.799 129.528 144.304 139.007 144.304 V156.307C131.635 156.307 124.393 158.247 118.009 161.933C111.625 165.619 106.323 170.921 102.637 177.305L92.242 171.304"></path></g></g></g><g id="g-root-cp_5_g-5_4maq1nubmcjn-fill" data-item-order="-448180" transform="translate(254, 262)"><g id="cp_5_g-5_4maq1nubmcjn-fill-merged" stroke="none" fill="#92bd39" fill-opacity="1"><g><path d="M58 10C84.51 10 106 31.49 106 58C106 84.51 84.51 106 58 106C31.49 106 10 84.51 10 58C10 31.49 31.49 10 58 10"></path></g></g><g id="cp_5_g-5_4maq1nubmcjn-fill-merged" stroke="none" fill="#92bd39" fill-opacity="1"><g><path d="M173.234 85C168.494 76.791 165.999 67.479 165.999 58C165.999 48.521 168.494 39.209 173.234 31L183.629 37.001C179.943 43.385 178.002 50.628 178.002 58C178.002 65.372 179.943 72.614 183.629 78.998L173.234 85"></path></g></g></g><g id="g-root-cp_4_g-4_1qckqqjubmaro-fill" data-item-order="-448170" transform="translate(334.9920349121094, 330.998046875)"><g id="cp_4_g-4_1qckqqjubmaro-fill-merged" stroke="none" fill="#1eabda" fill-opacity="1"><g><path d="M99.577 153.298C86.322 176.256 56.966 184.122 34.008 170.867C11.05 157.612 3.184 128.256 16.439 105.298C29.694 82.34 59.05 74.474 82.008 87.729C104.966 100.984 112.832 130.34 99.577 153.298"></path></g></g><g id="cp_4_g-4_1qckqqjubmaro-fill-merged" stroke="none" fill="#1eabda" fill-opacity="1"><g><path d="M139.007 43.001C129.528 43.001 120.216 40.506 112.007 35.767C103.798 31.027 96.982 24.211 92.242 16.001L102.637 10C106.323 16.384 111.625 21.686 118.009 25.372C124.393 29.058 131.635 30.999 139.007 30.999 V43.001"></path></g></g></g><g id="g-root-cp_3_g-3_145h84bubmd59-fill" data-item-order="-448160" transform="translate(463.9990234375, 330.998046875)"><g id="cp_3_g-3_145h84bubmd59-fill-merged" stroke="none" fill="#4e88e7" fill-opacity="1"><g><path d="M132.57 105.298C145.825 128.256 137.959 157.612 115 170.867C92.042 184.122 62.686 176.256 49.431 153.298C36.176 130.34 44.042 100.984 67 87.729C89.959 74.474 119.315 82.34 132.57 105.298"></path></g></g><g id="cp_3_g-3_145h84bubmd59-fill-merged" stroke="none" fill="#4e88e7" fill-opacity="1"><g><path d="M56.765 16.001C52.026 24.211 45.209 31.027 37 35.767C28.791 40.506 19.479 43.001 10 43.001 V30.999C17.372 30.999 24.614 29.058 30.999 25.372C37.383 21.686 42.685 16.384 46.37 10L56.765 16.001"></path></g></g></g><g id="g-root-cp_2_g-2_dj6ogrubmd5a-fill" data-item-order="-448150" transform="translate(500.3699951171875, 262)"><g id="cp_2_g-2_dj6ogrubmd5a-fill-merged" stroke="none" fill="#3cc583" fill-opacity="1"><g><path d="M135.63 10C162.14 10 183.63 31.49 183.63 58C183.63 84.51 162.14 106 135.63 106C109.12 106 87.63 84.51 87.63 58C87.63 31.49 109.12 10 135.63 10"></path></g></g><g id="cp_2_g-2_dj6ogrubmd5a-fill-merged" stroke="none" fill="#3cc583" fill-opacity="1"><g><path d="M20.395 31C25.134 39.209 27.629 48.521 27.629 58C27.629 67.479 25.134 76.791 20.395 85L10 78.998C13.686 72.614 15.627 65.372 15.627 58C15.627 50.628 13.686 43.385 10 37.001L20.395 31"></path></g></g></g><g id="g-root-cp_1_g-1_1utn717ubmc5j-fill" data-item-order="-448140" transform="translate(463.9990234375, 121.696044921875)"><g id="cp_1_g-1_1utn717ubmc5j-fill-merged" stroke="none" fill="#7f64ea" fill-opacity="1"><g><path d="M132.57 82.008C119.315 104.966 89.959 112.832 67.001 99.577C44.043 86.322 36.177 56.966 49.431 34.008C62.686 11.05 92.043 3.184 115.001 16.439C137.959 29.694 145.825 59.05 132.57 82.008"></path></g></g><g id="cp_1_g-1_1utn717ubmc5j-fill-merged" stroke="none" fill="#7f64ea" fill-opacity="1"><g><path d="M10 144.304C19.479 144.304 28.791 146.799 37 151.538C45.209 156.278 52.026 163.095 56.765 171.304L46.37 177.305C42.685 170.921 37.383 165.619 30.999 161.933C24.614 158.247 17.372 156.307 10 156.307 V144.304"></path></g></g></g><g id="g-root-cp_1_g-1_1_1hit5qzubmako-fill" data-item-order="-448129" transform="translate(491, 211.27392578125)"></g><g id="g-root-cp_2_g-2_1_147cndnubmc5l-fill" data-item-order="-448125" transform="translate(518, 310.0009765625)"></g><g id="g-root-cp_3_g-3_1_zrj597ubmcxu-fill" data-item-order="-448121" transform="translate(491, 356.76611328125)"></g><g id="g-root-cp_4_g-4_1_mgp3yzubmbcz-fill" data-item-order="-448117" transform="translate(407, 356.76611328125)"></g><g id="g-root-cp_5_g-5_1_958llnubmcxw-fill" data-item-order="-448113" transform="translate(350, 310.0009765625)"></g><g id="g-root-cp_6_g-6_1_8h23ubnp59-fill" data-item-order="-448109" transform="translate(407, 211.27392578125)"></g><g id="g-root-tx_datacomp_4maq1nubnqpt-fill" data-item-order="0" transform="translate(154.1875, 110)"><g id="tx_datacomp_4maq1nubnqpt-fill-merged" stroke="none" fill="#de8431" fill-opacity="1"><g><text style="font: bold 20px Roboto, sans-serif; white-space: pre;" transform="translate(166.8125, 22)" font-weight="bold" font-size="20px" font-family="Roboto, sans-serif"><tspan x="-154.81" y="12" dominant-baseline="ideographic">Data Compliance</tspan></text></g></g></g><g id="g-root-tx_policyin_hsrfq3ubnoy7-fill" data-item-order="0" transform="translate(614, 92)"><g id="tx_policyin_hsrfq3ubnoy7-fill-merged" stroke="none" fill="#7f64ea" fill-opacity="1"><g><text style="font: bold 20px Roboto, sans-serif; white-space: pre;" transform="translate(10, 22)" font-weight="bold" font-size="20px" font-family="Roboto, sans-serif"><tspan x="2" y="12" dominant-baseline="ideographic">Policy Intelligence</tspan></text></g></g></g><g id="g-root-tx_uidaidat_1hgxqhnubnpqi-fill" data-item-order="0" transform="translate(137.375, 146)"><g id="tx_uidaidat_1hgxqhnubnpqi-fill-merged" stroke="none" fill="#484848" fill-opacity="1"><g><text style="font: 15px Roboto, sans-serif; white-space: pre;" transform="translate(183.625, 19)" font-size="15px" font-family="Roboto, sans-serif"><tspan x="-171.63" y="8.6" dominant-baseline="ideographic">UIDAI dataset regulations</tspan></text></g></g></g><g id="g-root-tx_strategi_1hf8bubnrbc-fill" data-item-order="0" transform="translate(614, 128)"><g id="tx_strategi_1hf8bubnrbc-fill-merged" stroke="none" fill="#484848" fill-opacity="1"><g><text style="font: 15px Roboto, sans-serif; white-space: pre;" transform="translate(10, 28)" font-size="15px" font-family="Roboto, sans-serif"><tspan x="2" y="-0.4" dominant-baseline="ideographic">Strategic roadmap </tspan><tspan x="2" y="17.6" dominant-baseline="ideographic">development</tspan></text></g></g></g><g id="g-root-tx_intellig_1ha2ijfubnrba-fill" data-item-order="0" transform="translate(208.1624755859375, 38)"><g id="tx_intellig_1ha2ijfubnrba-fill-merged" stroke="none" fill="#484848" fill-opacity="1"><g><text style="font: bold 25px Roboto, sans-serif; white-space: pre;" transform="translate(265.8375244140625, 25)" font-weight="bold" font-size="25px" font-family="Roboto, sans-serif"><tspan x="-253.84" y="14.6" dominant-baseline="ideographic">Intelligent Audit Framework PESTEL Analysis</tspan></text></g></g></g><g id="g-root-tx_dataproc_1hf2b8bubnqq7-fill" data-item-order="0" transform="translate(78.95001220703125, 283)"><g id="tx_dataproc_1hf2b8bubnqq7-fill-merged" stroke="none" fill="#92bd39" fill-opacity="1"><g><text style="font: bold 20px Roboto, sans-serif; white-space: pre;" transform="translate(161.04998779296875, 22)" font-weight="bold" font-size="20px" font-family="Roboto, sans-serif"><tspan x="-149.05" y="12" dominant-baseline="ideographic">Data Processing</tspan></text></g></g></g><g id="g-root-tx_datatran_1hbxxsrubnqbl-fill" data-item-order="0" transform="translate(698, 283)"><g id="tx_datatran_1hbxxsrubnqbl-fill-merged" stroke="none" fill="#3cc583" fill-opacity="1"><g><text style="font: bold 20px Roboto, sans-serif; white-space: pre;" transform="translate(10, 22)" font-weight="bold" font-size="20px" font-family="Roboto, sans-serif"><tspan x="2" y="12" dominant-baseline="ideographic">Data Transformation</tspan></text></g></g></g><g id="g-root-tx_efficien_v8l9p7ubnqps-fill" data-item-order="0" transform="translate(77.72500610351562, 319)"><g id="tx_efficien_v8l9p7ubnqps-fill-merged" stroke="none" fill="#484848" fill-opacity="1"><g><text style="font: 15px Roboto, sans-serif; white-space: pre;" transform="translate(162.27499389648438, 19)" font-size="15px" font-family="Roboto, sans-serif"><tspan x="-150.27" y="8.6" dominant-baseline="ideographic">Efficient data handling</tspan></text></g></g></g><g id="g-root-tx_addressi_1lt0e3fubnrpg-fill" data-item-order="0" transform="translate(614, 500)"><g id="tx_addressi_1lt0e3fubnrpg-fill-merged" stroke="none" fill="#484848" fill-opacity="1"><g><text style="font: 15px Roboto, sans-serif; white-space: pre;" transform="translate(10, 28)" font-size="15px" font-family="Roboto, sans-serif"><tspan x="2" y="-0.4" dominant-baseline="ideographic">Addressing naming </tspan><tspan x="2" y="17.6" dominant-baseline="ideographic">mismatches</tspan></text></g></g></g><g id="g-root-tx_valuefro_qpne57ubnqbm-fill" data-item-order="0" transform="translate(698, 319)"><g id="tx_valuefro_qpne57ubnqbm-fill-merged" stroke="none" fill="#484848" fill-opacity="1"><g><text style="font: 15px Roboto, sans-serif; white-space: pre;" transform="translate(10, 19)" font-size="15px" font-family="Roboto, sans-serif"><tspan x="2" y="8.6" dominant-baseline="ideographic">Value from raw data</tspan></text></g></g></g><g id="g-root-tx_anomalyd_18i6ct7ubnq4l-fill" data-item-order="0" transform="translate(139.66249084472656, 464)"><g id="tx_anomalyd_18i6ct7ubnq4l-fill-merged" stroke="none" fill="#1eabda" fill-opacity="1"><g><text style="font: bold 20px Roboto, sans-serif; white-space: pre;" transform="translate(184.33750915527344, 22)" font-weight="bold" font-size="20px" font-family="Roboto, sans-serif"><tspan x="-172.34" y="12" dominant-baseline="ideographic">Anomaly Detection</tspan></text></g></g></g><g id="g-root-tx_datacons_4j6cm3ubnpjf-fill" data-item-order="0" transform="translate(614, 464)"><g id="tx_datacons_4j6cm3ubnpjf-fill-merged" stroke="none" fill="#4e88e7" fill-opacity="1"><g><text style="font: bold 20px Roboto, sans-serif; white-space: pre;" transform="translate(10, 22)" font-weight="bold" font-size="20px" font-family="Roboto, sans-serif"><tspan x="2" y="12" dominant-baseline="ideographic">Data Consistency</tspan></text></g></g></g><g id="g-root-tx_statisti_908swrubnqxa-fill" data-item-order="0" transform="translate(175.17498779296875, 500)"><g id="tx_statisti_908swrubnqxa-fill-merged" stroke="none" fill="#484848" fill-opacity="1"><g><text style="font: 15px Roboto, sans-serif; white-space: pre;" transform="translate(148.82501220703125, 28)" font-size="15px" font-family="Roboto, sans-serif"><tspan x="-136.82" y="-0.4" dominant-baseline="ideographic">Statistical validation </tspan><tspan x="-61.04" y="17.6" dominant-baseline="ideographic">methods</tspan></text></g></g></g><g id="g-root-cp_6_g-6_mdkqjfubma6i-stroke" data-item-order="-448190" transform="translate(334.9920349121094, 121.696044921875)"><g id="cp_6_g-6_mdkqjfubma6i-stroke" fill="none" stroke-linecap="round" stroke-linejoin="round" stroke-miterlimit="4" stroke="#ffffff" stroke-width="2" stroke-opacity="1"><g><path d="M 99.577169 34.008C 112.832069 56.9661 104.966069 86.3224 82.007969 99.5772C 59.049969 112.8321 29.693569 104.9661 16.438769 82.008C 3.183969 59.05 11.049969 29.6936 34.007969 16.4388C 56.966069 3.184 86.322369 11.05 99.577169 34.008Z"></path></g></g><g id="cp_6_g-6_mdkqjfubma6i-stroke" fill="none" stroke-linecap="round" stroke-linejoin="round" stroke-miterlimit="4" stroke="#ffffff" stroke-width="2" stroke-opacity="1"><g><path d="M 92.242034 171.303711C 96.981534 163.094711 103.798334 156.277811 112.007434 151.538311C 120.216434 146.798811 129.528434 144.30371 139.007434 144.303711L 139.007434 156.306611C 131.635334 156.306611 124.393234 158.247211 118.008834 161.933211C 111.624534 165.619211 106.322934 170.920811 102.636934 177.305211L 92.242034 171.303711ZM 43.507659 83.213055C 42.403059 83.213055 41.507659 82.317655 41.507659 81.213055L 41.507659 34.303955C 41.507659 33.199355 42.403059 32.303955 43.507659 32.303955L 51.812359 32.303955C 52.916959 32.303955 53.812359 33.199355 53.812359 34.303955L 53.812359 73.220155L 72.991359 73.220155C 74.095859 73.220155 74.991359 74.115555 74.991359 75.220155L 74.991359 81.213055C 74.991359 82.317655 74.095859 83.213055 72.991359 83.213055L 43.507659 83.213055Z"></path></g></g></g><g id="g-root-cp_5_g-5_4maq1nubmcjn-stroke" data-item-order="-448180" transform="translate(254, 262)"><g id="cp_5_g-5_4maq1nubmcjn-stroke" fill="none" stroke-linecap="round" stroke-linejoin="round" stroke-miterlimit="4" stroke="#ffffff" stroke-width="2" stroke-opacity="1"><g><path d="M 58 10C 84.5097 10 106 31.4903 106 58C 106 84.5097 84.5097 106 58 106C 31.4903 106 10 84.5097 10 58C 10 31.4903 31.4903 10 58 10Z"></path></g></g><g id="cp_5_g-5_4maq1nubmcjn-stroke" fill="none" stroke-linecap="round" stroke-linejoin="round" stroke-miterlimit="4" stroke="#ffffff" stroke-width="2" stroke-opacity="1"><g><path d="M 173.23399 84.999634C 168.49449 76.790634 165.999389 67.478634 165.99939 57.999634C 165.99939 48.520634 168.49449 39.208634 173.23399 30.999634L 183.62889 37.001134C 179.94289 43.385434 178.00229 50.627634 178.00229 57.999634C 178.00229 65.371634 179.94289 72.613834 183.62889 78.998134L 173.23399 84.999634ZM 41.999634 83.408978C 40.895034 83.408978 39.999634 82.513578 39.999634 81.408978L 39.999634 34.499878C 39.999634 33.395278 40.895034 32.499878 41.999634 32.499878L 73.496834 32.499878C 74.601334 32.499878 75.496834 33.395278 75.496834 34.499878L 75.496834 40.492778C 75.496834 41.597378 74.601334 42.492778 73.496834 42.492778L 52.304334 42.492778L 52.304334 52.933078L 71.682134 52.933078C 72.786734 52.933078 73.682134 53.828578 73.682134 54.933078L 73.682134 60.950878C 73.682134 62.055478 72.786734 62.950878 71.682134 62.950878L 52.304334 62.950878L 52.304334 73.416078L 73.496834 73.416078C 74.601334 73.416078 75.496834 74.311478 75.496834 75.416078L 75.496834 81.408978C 75.496834 82.513578 74.601334 83.408978 73.496834 83.408978L 41.999634 83.408978Z"></path></g></g></g><g id="g-root-cp_4_g-4_1qckqqjubmaro-stroke" data-item-order="-448170" transform="translate(334.9920349121094, 330.998046875)"><g id="cp_4_g-4_1qckqqjubmaro-stroke" fill="none" stroke-linecap="round" stroke-linejoin="round" stroke-miterlimit="4" stroke="#ffffff" stroke-width="2" stroke-opacity="1"><g><path d="M 99.577169 153.298039C 86.322369 176.256139 56.966069 184.122139 34.007969 170.867239C 11.049969 157.612439 3.183969 128.256139 16.438769 105.298039C 29.693569 82.340039 59.049969 74.474039 82.007969 87.728839C 104.966069 100.983639 112.832069 130.340039 99.577169 153.298039Z"></path></g></g><g id="cp_4_g-4_1qckqqjubmaro-stroke" fill="none" stroke-linecap="round" stroke-linejoin="round" stroke-miterlimit="4" stroke="#ffffff" stroke-width="2" stroke-opacity="1"><g><path d="M 139.007434 43.0015C 129.528434 43.0015 120.216434 40.5063 112.007434 35.7668C 103.798334 31.0274 96.981534 24.2105 92.242034 16.0015L 102.636934 10C 106.322934 16.3844 111.624534 21.686 118.008834 25.372C 124.393234 29.058 131.635334 30.9985 139.007434 30.9985L 139.007434 43.0015ZM 36.507659 113.994609L 36.507659 106.001709C 36.507659 104.897109 37.403059 104.001709 38.507659 104.001709L 77.536759 104.001709C 78.641359 104.001709 79.536759 104.897109 79.536759 106.001709L 79.536759 111.994609C 79.536759 113.099209 78.641359 113.994609 77.536759 113.994609L 64.099959 113.994609L 64.099959 152.910809C 64.099959 154.015409 63.204559 154.910809 62.099959 154.910809L 53.969359 154.910809C 52.864759 154.910809 51.969359 154.015409 51.969359 152.910809L 51.969359 113.994609L 36.507659 113.994609Z"></path></g></g></g><g id="g-root-cp_3_g-3_145h84bubmd59-stroke" data-item-order="-448160" transform="translate(463.9990234375, 330.998046875)"><g id="cp_3_g-3_145h84bubmd59-stroke" fill="none" stroke-linecap="round" stroke-linejoin="round" stroke-miterlimit="4" stroke="#ffffff" stroke-width="2" stroke-opacity="1"><g><path d="M 132.569632 105.297917C 145.824532 128.256017 137.958532 157.612317 115.000432 170.867117C 92.042432 184.122017 62.686032 176.256017 49.431232 153.297917C 36.176432 130.339917 44.042432 100.983517 67.000432 87.728717C 89.958532 74.473917 119.314832 82.339917 132.569632 105.297917Z"></path></g></g><g id="cp_3_g-3_145h84bubmd59-stroke" fill="none" stroke-linecap="round" stroke-linejoin="round" stroke-miterlimit="4" stroke="#ffffff" stroke-width="2" stroke-opacity="1"><g><path d="M 56.7654 16.0015C 52.0259 24.2105 45.209 31.0274 37 35.7668C 28.791 40.5063 19.479 43.0015 10 43.0015L 10 30.9985C 17.372 30.9985 24.6142 29.058 30.9985 25.372C 37.3829 21.686 42.6845 16.3844 46.3705 10L 56.7654 16.0015ZM 100.714844 119.960509C 99.680344 119.960509 98.858544 119.151309 98.498944 118.181409C 98.130544 117.187609 97.522944 116.363709 96.676044 115.709809C 95.383344 114.682309 93.535644 114.168609 91.132644 114.168609C 89.541744 114.168609 88.216044 114.375809 87.155444 114.790009C 86.094844 115.204309 85.299344 115.776109 84.769044 116.505309C 84.238744 117.217809 83.965344 118.038209 83.948744 118.966209C 83.915544 119.728509 84.064744 120.399709 84.396144 120.979709C 84.744144 121.559709 85.241344 122.073409 85.887644 122.520909C 86.550544 122.951709 87.345944 123.332909 88.274044 123.664309C 89.202044 123.995809 90.246044 124.285809 91.406144 124.534409L 95.781144 125.528709C 98.300044 126.075609 100.520744 126.804709 102.443044 127.716209C 104.381944 128.627609 106.006044 129.713109 107.315244 130.972609C 108.640944 132.232109 109.643544 133.682109 110.323044 135.322709C 111.002444 136.963309 111.350444 138.802809 111.367044 140.841209C 111.350444 144.056209 110.538444 146.815409 108.930944 149.118909C 107.323444 151.422409 105.011744 153.187309 101.995644 154.413609C 98.996044 155.640009 95.375144 156.253109 91.132644 156.253109C 86.873644 156.253109 83.161544 155.615109 79.996344 154.339109C 76.831044 153.063009 74.370144 151.124109 72.613544 148.522309C 71.163844 146.375209 70.295444 143.759809 70.008244 140.676109C 69.904944 139.566509 70.814744 138.653709 71.929144 138.653709L 79.804244 138.653709C 80.861744 138.653709 81.704544 139.488409 81.974244 140.511009C 82.197144 141.356009 82.540444 142.104109 83.004144 142.755309C 83.783044 143.849009 84.851944 144.677609 86.210844 145.241009C 87.586244 145.804509 89.177144 146.086209 90.983544 146.086209C 92.640744 146.086209 94.049344 145.862509 95.209344 145.415009C 96.386044 144.967609 97.289144 144.346209 97.918944 143.550709C 98.548644 142.755309 98.871744 141.843809 98.888344 140.816309C 98.871744 139.855209 98.573444 139.034809 97.993444 138.355409C 97.413444 137.659409 96.518544 137.062809 95.308844 136.565609C 94.115644 136.051909 92.591044 135.579609 90.734944 135.148709L 85.415344 133.905809C 81.007244 132.894909 77.535344 131.262609 74.999844 129.008809C 72.464344 126.738409 71.204844 123.672609 71.221444 119.811409C 71.204844 116.662709 72.050044 113.903509 73.756944 111.533709C 75.463844 109.163909 77.825344 107.316109 80.841444 105.990309C 83.857544 104.664609 87.296244 104.001709 91.157544 104.001709C 95.101644 104.001709 98.523744 104.672909 101.423844 106.015209C 104.340544 107.341009 106.602644 109.205309 108.210144 111.608209C 109.467144 113.487409 110.242844 115.599609 110.537144 117.945009C 110.675644 119.049109 109.762744 119.960509 108.649944 119.960509L 100.714844 119.960509Z"></path></g></g></g><g id="g-root-cp_2_g-2_dj6ogrubmd5a-stroke" data-item-order="-448150" transform="translate(500.3699951171875, 262)"><g id="cp_2_g-2_dj6ogrubmd5a-stroke" fill="none" stroke-linecap="round" stroke-linejoin="round" stroke-miterlimit="4" stroke="#ffffff" stroke-width="2" stroke-opacity="1"><g><path d="M 135.630127 10C 162.139827 10 183.630127 31.4903 183.630127 58C 183.630127 84.5097 162.139827 106 135.630127 106C 109.120427 106 87.630127 84.5097 87.630127 58C 87.630127 31.4903 109.120427 10 135.630127 10Z"></path></g></g><g id="cp_2_g-2_dj6ogrubmd5a-stroke" fill="none" stroke-linecap="round" stroke-linejoin="round" stroke-miterlimit="4" stroke="#ffffff" stroke-width="2" stroke-opacity="1"><g><path d="M 20.3949 30.999634C 25.1343 39.208634 27.6295 48.520634 27.6295 57.999634C 27.6295 67.478634 25.1344 76.790534 20.3949 84.999634L 10 78.998134C 13.686 72.613834 15.6265 65.371634 15.6265 57.999634C 15.6265 50.627634 13.686 43.385434 10 37.001134L 20.3949 30.999634ZM 119.629883 83.408978C 118.525283 83.408978 117.629883 82.513578 117.629883 81.408978L 117.629883 34.499878C 117.629883 33.395278 118.525283 32.499878 119.629883 32.499878L 151.127083 32.499878C 152.231583 32.499878 153.127083 33.395278 153.127083 34.499878L 153.127083 40.492778C 153.127083 41.597378 152.231583 42.492778 151.127083 42.492778L 129.934583 42.492778L 129.934583 52.933078L 149.312383 52.933078C 150.416983 52.933078 151.312383 53.828578 151.312383 54.933078L 151.312383 60.950878C 151.312383 62.055478 150.416983 62.950878 149.312383 62.950878L 129.934583 62.950878L 129.934583 73.416078L 151.127083 73.416078C 152.231583 73.416078 153.127083 74.311478 153.127083 75.416078L 153.127083 81.408978C 153.127083 82.513578 152.231583 83.408978 151.127083 83.408978L 119.629883 83.408978Z"></path></g></g></g><g id="g-root-cp_1_g-1_1utn717ubmc5j-stroke" data-item-order="-448140" transform="translate(463.9990234375, 121.696044921875)"><g id="cp_1_g-1_1utn717ubmc5j-stroke" fill="none" stroke-linecap="round" stroke-linejoin="round" stroke-miterlimit="4" stroke="#ffffff" stroke-width="2" stroke-opacity="1"><g><path d="M 132.569754 82.008C 119.314954 104.9661 89.958654 112.8321 67.000554 99.5772C 44.042554 86.3224 36.176554 56.9661 49.431354 34.008C 62.686154 11.05 92.042554 3.184 115.000554 16.4388C 137.958654 29.6936 145.824654 59.05 132.569754 82.008Z"></path></g></g><g id="cp_1_g-1_1utn717ubmc5j-stroke" fill="none" stroke-linecap="round" stroke-linejoin="round" stroke-miterlimit="4" stroke="#ffffff" stroke-width="2" stroke-opacity="1"><g><path d="M 10 144.303711C 19.479 144.303712 28.791 146.798811 37 151.538311C 45.209 156.277811 52.0259 163.094711 56.7654 171.303711L 46.3705 177.305211C 42.6845 170.920811 37.3829 165.619211 30.9985 161.933211C 24.6142 158.247211 17.372 156.306611 10 156.306611L 10 144.303711ZM 92.530544 32.303955C 96.341844 32.304055 99.631244 33.049855 102.398644 34.541255C 105.182744 36.016155 107.329144 38.079255 108.837144 40.730755C 110.345144 43.365555 111.098844 46.431455 111.098844 49.927955C 111.098844 53.441255 110.328544 56.515655 108.787344 59.150655C 107.262744 61.768855 105.083044 63.798755 102.249244 65.240455C 99.415544 66.682155 96.051644 67.403555 92.157444 67.403555L 83.804944 67.403555L 83.804944 81.213155C 83.804944 82.317655 82.909544 83.213155 81.804944 83.213155L 73.500244 83.213155C 72.395644 83.213155 71.500244 82.317655 71.500244 81.213155L 71.500244 34.303955C 71.500244 33.199355 72.395644 32.303955 73.500244 32.303955L 92.530544 32.303955ZM 83.804944 57.708255L 89.870344 57.708255C 91.726344 57.708255 93.275944 57.385755 94.518844 56.739455C 95.778244 56.093255 96.730844 55.189555 97.377244 54.029555C 98.023544 52.852955 98.346944 51.485755 98.346944 49.927955C 98.346944 48.353655 98.023544 46.994255 97.377244 45.850855C 96.730844 44.690955 95.778144 43.795955 94.518844 43.166255C 93.259344 42.536555 91.709744 42.221955 89.870344 42.221955L 83.804944 42.221955L 83.804944 57.708255Z"></path></g></g></g><g id="g-root-cp_1_g-1_1_1hit5qzubmako-stroke" data-item-order="-448129" transform="translate(491, 211.27392578125)"><g id="cp_1_g-1_1_1hit5qzubmako-stroke" fill="none" stroke-linecap="round" stroke-linejoin="round" stroke-miterlimit="4" stroke="#484848" stroke-width="2" stroke-opacity="1"><g><path d="M 40 10L 10 61.9615"></path></g></g></g><g id="g-root-cp_2_g-2_1_147cndnubmc5l-stroke" data-item-order="-448125" transform="translate(518, 310.0009765625)"><g id="cp_2_g-2_1_147cndnubmc5l-stroke" fill="none" stroke-linecap="round" stroke-linejoin="round" stroke-miterlimit="4" stroke="#484848" stroke-width="2" stroke-opacity="1"><g><path d="M 10 10L 70 10"></path></g></g></g><g id="g-root-cp_3_g-3_1_zrj597ubmcxu-stroke" data-item-order="-448121" transform="translate(491, 356.76611328125)"><g id="cp_3_g-3_1_zrj597ubmcxu-stroke" fill="none" stroke-linecap="round" stroke-linejoin="round" stroke-miterlimit="4" stroke="#484848" stroke-width="2" stroke-opacity="1"><g><path d="M 10 10L 40 61.9615"></path></g></g></g><g id="g-root-cp_4_g-4_1_mgp3yzubmbcz-stroke" data-item-order="-448117" transform="translate(407, 356.76611328125)"><g id="cp_4_g-4_1_mgp3yzubmbcz-stroke" fill="none" stroke-linecap="round" stroke-linejoin="round" stroke-miterlimit="4" stroke="#484848" stroke-width="2" stroke-opacity="1"><g><path d="M 40 10L 10 61.9615"></path></g></g></g><g id="g-root-cp_5_g-5_1_958llnubmcxw-stroke" data-item-order="-448113" transform="translate(350, 310.0009765625)"><g id="cp_5_g-5_1_958llnubmcxw-stroke" fill="none" stroke-linecap="round" stroke-linejoin="round" stroke-miterlimit="4" stroke="#484848" stroke-width="2" stroke-opacity="1"><g><path d="M 10 10L 70 10"></path></g></g></g><g id="g-root-cp_6_g-6_1_8h23ubnp59-stroke" data-item-order="-448109" transform="translate(407, 211.27392578125)"><g id="cp_6_g-6_1_8h23ubnp59-stroke" fill="none" stroke-linecap="round" stroke-linejoin="round" stroke-miterlimit="4" stroke="#484848" stroke-width="2" stroke-opacity="1"><g><path d="M 10 10L 40 61.9615"></path></g></g></g><g id="g-root-tx_datacomp_4maq1nubnqpt-stroke" data-item-order="0" transform="translate(154.1875, 110)"></g><g id="g-root-tx_policyin_hsrfq3ubnoy7-stroke" data-item-order="0" transform="translate(614, 92)"></g><g id="g-root-tx_uidaidat_1hgxqhnubnpqi-stroke" data-item-order="0" transform="translate(137.375, 146)"></g><g id="g-root-tx_strategi_1hf8bubnrbc-stroke" data-item-order="0" transform="translate(614, 128)"></g><g id="g-root-tx_intellig_1ha2ijfubnrba-stroke" data-item-order="0" transform="translate(208.1624755859375, 38)"></g><g id="g-root-tx_dataproc_1hf2b8bubnqq7-stroke" data-item-order="0" transform="translate(78.95001220703125, 283)"></g><g id="g-root-tx_datatran_1hbxxsrubnqbl-stroke" data-item-order="0" transform="translate(698, 283)"></g><g id="g-root-tx_efficien_v8l9p7ubnqps-stroke" data-item-order="0" transform="translate(77.72500610351562, 319)"></g><g id="g-root-tx_addressi_1lt0e3fubnrpg-stroke" data-item-order="0" transform="translate(614, 500)"></g><g id="g-root-tx_valuefro_qpne57ubnqbm-stroke" data-item-order="0" transform="translate(698, 319)"></g><g id="g-root-tx_anomalyd_18i6ct7ubnq4l-stroke" data-item-order="0" transform="translate(139.66249084472656, 464)"></g><g id="g-root-tx_datacons_4j6cm3ubnpjf-stroke" data-item-order="0" transform="translate(614, 464)"></g><g id="g-root-tx_statisti_908swrubnqxa-stroke" data-item-order="0" transform="translate(175.17498779296875, 500)"></g></g></g><path id="wm9tz7ft7we1b" d="M65.283 12.757a.35.35 0 0 0 .584.157l5.203-5.141-6.183 3.523.396 1.461zm-2.216-11.7a.35.35 0 0 0-.522.305v3.111l3.276-1.868-2.754-1.548zm3.728 2.105l-4.25 2.421v2.445l6.391-3.644-2.141-1.222zm4.708 3.303a.35.35 0 0 0 0-.609l-1.592-.9-7.365 4.199v1.782a.35.35 0 0 0 .523.305l8.435-4.777z M44.542 2.513c0-.433.355-.783.792-.783s.792.35.792.783-.355.783-.792.783-.792-.35-.792-.783zm59.171 0c0-.433.355-.783.792-.783s.792.35.792.783-.355.783-.792.783-.792-.35-.792-.783zm-85.951 7.636h-1.27v-.487c-.276.201-.864.609-1.881.609-1.202 0-2.274-.794-2.137-2.078.118-1.106 1.153-1.584 1.848-1.727l2.17-.345c0-.539-.29-.956-1.064-1.006s-1.21.305-1.571 1.017l-1.124-.605c1.218-2.631 5.029-1.764 5.029.414v4.207zm-1.27-2.86c.006.396-.062 1.112-.819 1.59-.587.37-1.841.299-1.903-.395-.049-.555.461-.791.906-.898l1.816-.297zm72.662 2.86h-1.27v-.487c-.276.201-.864.609-1.881.609-1.202 0-2.274-.794-2.137-2.078.118-1.106 1.153-1.584 1.848-1.727l2.17-.345c0-.539-.29-.956-1.064-1.006s-1.21.305-1.571 1.017l-1.124-.605c1.218-2.631 5.029-1.764 5.029.414v4.207zm-1.27-2.86c.006.396-.062 1.112-.82 1.59-.587.37-1.841.299-1.903-.395-.049-.555.461-.791.906-.898l1.816-.297zM99.096 10.149H97.85v-8.45h1.246v4.895l2.68-2.559h1.738l-2.633 2.535 2.715 3.578h-1.556l-2.077-2.707-.867.844v1.863zm6.053-6.114h-1.255v6.113h1.255V4.035zm-59.2 0h-1.255v6.113h1.255V4.035zm5.584 6.113V1.697h1.255v2.695c.361-.346 1-.485 1.47-.485 1.452 0 2.477 1.082 2.457 2.448v3.792h-1.27v-3.68c0-.408-.214-1.339-1.315-1.339-.968 0-1.342.756-1.342 1.339v3.681h-1.255zm-4.76-4.894V4.039h.621a.45.45 0 0 0 .45-.45v-.855h1.251v1.305h1.309v1.215h-1.309v3.109c0 .293.105.664.648.664.365 0 .531-.035.736-.07v1.137s-.361.113-.857.113c-1.398 0-1.777-1.051-1.777-1.788V5.254h-1.071zM36.528 4.039h-1.394l2.191 6.106h1.125l1.234-3.918 1.238 3.918h1.129l2.188-6.106h-1.383l-1.359 3.93-1.256-3.93h-1.124l-1.242 3.957-1.348-3.957zM26.212 7.141c-.02 1.566 1.187 3.129 3.223 3.129 1.566 0 2.383-.918 2.734-1.719L31.172 8c-.315.399-.801 1.094-1.738 1.094-1.145 0-1.825-.781-1.891-1.52h4.625c.074-.284.148-.995-.03-1.559-.336-1.064-1.221-2.102-2.839-2.102s-3.088 1.152-3.088 3.227zm1.363-.75h3.348c-.055-.43-.566-1.301-1.623-1.301a1.79 1.79 0 0 0-1.725 1.301zm-8.758.75c.038 1.758 1.277 3.133 3.145 3.133 1.074 0 1.723-.477 1.961-.672v.547h1.242V1.703h-1.258v2.888c-.414-.36-1.062-.68-1.93-.68-1.91 0-3.198 1.473-3.16 3.23zm1.309-.08c0 1.119.723 1.978 1.836 1.978a1.88 1.88 0 0 0 1.94-1.904c0-1.371-1.011-1.99-1.972-1.99s-1.805.798-1.805 1.916zm76.683-.028C96.771 5.275 95.532 3.9 93.664 3.9c-1.074 0-1.723.477-1.961.672v-.547h-1.242v8.22h1.258V9.583c.414.36 1.063.68 1.93.68 1.91 0 3.198-1.473 3.16-3.23zm-1.309.08c0-1.119-.723-1.978-1.836-1.978a1.88 1.88 0 0 0-1.94 1.904c0 1.371 1.011 1.99 1.972 1.99S95.5 8.231 95.5 7.113zM106.441 10.173V4.036h1.254v.382c.361-.346 1-.485 1.47-.485 1.452 0 2.477 1.082 2.457 2.448v3.792h-1.27V6.492c0-.408-.214-1.339-1.315-1.339-.969 0-1.342.756-1.342 1.339v3.681h-1.254zm-30.383-.021V1.824h1.084l4.215 5.777V1.824h1.32v8.328h-1.094l-4.207-5.796v5.796h-1.319zM5.24 10.149H4V2.377h1.014l2.664 3.597 2.654-3.592h1.03v7.766h-1.256V4.762L7.678 8.068 5.24 4.742v5.407z" transform="translate(819.385498046875, 567.385498046875)" fill="#80808088" stroke="none"></path></svg>